<mxfile host="app.diagrams.net" agent="Mozilla/5.0 (Windows NT 10.0; Win64; x64) AppleWebKit/537.36 (KHTML, like Gecko) Chrome/131.0.0.0 Safari/537.36 Edg/131.0.0.0" version="25.0.3">
  <diagram id="C5RBs43oDa-KdzZeNtuy" name="Page-1">
    <mxGraphModel dx="2514" dy="2054" grid="1" gridSize="10" guides="1" tooltips="1" connect="1" arrows="1" fold="1" page="1" pageScale="1" pageWidth="827" pageHeight="1169" math="0" shadow="0">
      <root>
        <mxCell id="WIyWlLk6GJQsqaUBKTNV-0" />
        <mxCell id="WIyWlLk6GJQsqaUBKTNV-1" parent="WIyWlLk6GJQsqaUBKTNV-0" />
        <mxCell id="cGArzZf6l7HYYYU6c4xr-15" style="edgeStyle=orthogonalEdgeStyle;rounded=0;orthogonalLoop=1;jettySize=auto;html=1;entryX=0.5;entryY=0;entryDx=0;entryDy=0;endArrow=ERmandOne;endFill=0;" edge="1" parent="WIyWlLk6GJQsqaUBKTNV-1" source="WIyWlLk6GJQsqaUBKTNV-6" target="cGArzZf6l7HYYYU6c4xr-0">
          <mxGeometry relative="1" as="geometry" />
        </mxCell>
        <mxCell id="WIyWlLk6GJQsqaUBKTNV-6" value="elerhetove tesz" style="rhombus;whiteSpace=wrap;html=1;shadow=0;fontFamily=Helvetica;fontSize=12;align=center;strokeWidth=1;spacing=6;spacingTop=-4;" parent="WIyWlLk6GJQsqaUBKTNV-1" vertex="1">
          <mxGeometry x="370" y="120" width="100" height="80" as="geometry" />
        </mxCell>
        <mxCell id="cGArzZf6l7HYYYU6c4xr-14" style="edgeStyle=orthogonalEdgeStyle;rounded=0;orthogonalLoop=1;jettySize=auto;html=1;entryX=0.5;entryY=0;entryDx=0;entryDy=0;startArrow=ERone;startFill=0;endArrow=none;endFill=0;" edge="1" parent="WIyWlLk6GJQsqaUBKTNV-1" source="WIyWlLk6GJQsqaUBKTNV-7" target="WIyWlLk6GJQsqaUBKTNV-6">
          <mxGeometry relative="1" as="geometry" />
        </mxCell>
        <mxCell id="WIyWlLk6GJQsqaUBKTNV-7" value="Eszkozgyarto" style="rounded=1;whiteSpace=wrap;html=1;fontSize=12;glass=0;strokeWidth=1;shadow=0;" parent="WIyWlLk6GJQsqaUBKTNV-1" vertex="1">
          <mxGeometry x="360" width="120" height="40" as="geometry" />
        </mxCell>
        <mxCell id="cGArzZf6l7HYYYU6c4xr-17" style="edgeStyle=orthogonalEdgeStyle;rounded=0;orthogonalLoop=1;jettySize=auto;html=1;entryX=0.5;entryY=0;entryDx=0;entryDy=0;endArrow=ERmandOne;endFill=0;" edge="1" parent="WIyWlLk6GJQsqaUBKTNV-1" source="WIyWlLk6GJQsqaUBKTNV-10" target="WIyWlLk6GJQsqaUBKTNV-11">
          <mxGeometry relative="1" as="geometry" />
        </mxCell>
        <mxCell id="WIyWlLk6GJQsqaUBKTNV-10" value="ertekesit" style="rhombus;whiteSpace=wrap;html=1;shadow=0;fontFamily=Helvetica;fontSize=12;align=center;strokeWidth=1;spacing=6;spacingTop=-4;" parent="WIyWlLk6GJQsqaUBKTNV-1" vertex="1">
          <mxGeometry x="370" y="400" width="100" height="80" as="geometry" />
        </mxCell>
        <mxCell id="cGArzZf6l7HYYYU6c4xr-18" style="edgeStyle=orthogonalEdgeStyle;rounded=0;orthogonalLoop=1;jettySize=auto;html=1;entryX=1;entryY=0.5;entryDx=0;entryDy=0;endArrow=ERone;endFill=0;exitX=0;exitY=0.5;exitDx=0;exitDy=0;" edge="1" parent="WIyWlLk6GJQsqaUBKTNV-1" source="cGArzZf6l7HYYYU6c4xr-2" target="WIyWlLk6GJQsqaUBKTNV-11">
          <mxGeometry relative="1" as="geometry">
            <mxPoint x="510" y="510" as="sourcePoint" />
            <mxPoint x="600" y="510.5" as="targetPoint" />
          </mxGeometry>
        </mxCell>
        <mxCell id="cGArzZf6l7HYYYU6c4xr-22" style="edgeStyle=orthogonalEdgeStyle;rounded=0;orthogonalLoop=1;jettySize=auto;html=1;entryX=1;entryY=0.5;entryDx=0;entryDy=0;endArrow=none;endFill=0;startArrow=ERmandOne;startFill=0;" edge="1" parent="WIyWlLk6GJQsqaUBKTNV-1" source="WIyWlLk6GJQsqaUBKTNV-11" target="cGArzZf6l7HYYYU6c4xr-3">
          <mxGeometry relative="1" as="geometry" />
        </mxCell>
        <mxCell id="WIyWlLk6GJQsqaUBKTNV-11" value="Dolgozo" style="rounded=1;whiteSpace=wrap;html=1;fontSize=12;glass=0;strokeWidth=1;shadow=0;" parent="WIyWlLk6GJQsqaUBKTNV-1" vertex="1">
          <mxGeometry x="360" y="564.5" width="120" height="40" as="geometry" />
        </mxCell>
        <mxCell id="WIyWlLk6GJQsqaUBKTNV-12" value="Mentor" style="rounded=1;whiteSpace=wrap;html=1;fontSize=12;glass=0;strokeWidth=1;shadow=0;" parent="WIyWlLk6GJQsqaUBKTNV-1" vertex="1">
          <mxGeometry x="790" y="565" width="120" height="40" as="geometry" />
        </mxCell>
        <mxCell id="cGArzZf6l7HYYYU6c4xr-16" style="edgeStyle=orthogonalEdgeStyle;rounded=0;orthogonalLoop=1;jettySize=auto;html=1;entryX=0.5;entryY=0;entryDx=0;entryDy=0;endArrow=none;endFill=0;startArrow=ERmandOne;startFill=0;" edge="1" parent="WIyWlLk6GJQsqaUBKTNV-1" source="cGArzZf6l7HYYYU6c4xr-0" target="WIyWlLk6GJQsqaUBKTNV-10">
          <mxGeometry relative="1" as="geometry" />
        </mxCell>
        <mxCell id="cGArzZf6l7HYYYU6c4xr-28" style="rounded=0;orthogonalLoop=1;jettySize=auto;html=1;exitX=1;exitY=0;exitDx=0;exitDy=0;entryX=0;entryY=0.5;entryDx=0;entryDy=0;endArrow=none;endFill=0;" edge="1" parent="WIyWlLk6GJQsqaUBKTNV-1" source="cGArzZf6l7HYYYU6c4xr-0" target="cGArzZf6l7HYYYU6c4xr-24">
          <mxGeometry relative="1" as="geometry" />
        </mxCell>
        <mxCell id="cGArzZf6l7HYYYU6c4xr-29" style="rounded=0;orthogonalLoop=1;jettySize=auto;html=1;exitX=1;exitY=1;exitDx=0;exitDy=0;entryX=0;entryY=0.5;entryDx=0;entryDy=0;endArrow=none;endFill=0;" edge="1" parent="WIyWlLk6GJQsqaUBKTNV-1" source="cGArzZf6l7HYYYU6c4xr-0" target="cGArzZf6l7HYYYU6c4xr-26">
          <mxGeometry relative="1" as="geometry" />
        </mxCell>
        <mxCell id="cGArzZf6l7HYYYU6c4xr-0" value="Szolgaltatas" style="rounded=1;whiteSpace=wrap;html=1;fontSize=12;glass=0;strokeWidth=1;shadow=0;" vertex="1" parent="WIyWlLk6GJQsqaUBKTNV-1">
          <mxGeometry x="360" y="280" width="120" height="40" as="geometry" />
        </mxCell>
        <mxCell id="cGArzZf6l7HYYYU6c4xr-1" value="Ugyfel" style="rounded=1;whiteSpace=wrap;html=1;fontSize=12;glass=0;strokeWidth=1;shadow=0;" vertex="1" parent="WIyWlLk6GJQsqaUBKTNV-1">
          <mxGeometry x="-70" y="565" width="120" height="40" as="geometry" />
        </mxCell>
        <mxCell id="cGArzZf6l7HYYYU6c4xr-19" style="edgeStyle=orthogonalEdgeStyle;rounded=0;orthogonalLoop=1;jettySize=auto;html=1;entryX=0;entryY=0.5;entryDx=0;entryDy=0;endArrow=ERone;endFill=0;" edge="1" parent="WIyWlLk6GJQsqaUBKTNV-1" source="cGArzZf6l7HYYYU6c4xr-2" target="WIyWlLk6GJQsqaUBKTNV-12">
          <mxGeometry relative="1" as="geometry" />
        </mxCell>
        <mxCell id="cGArzZf6l7HYYYU6c4xr-2" value="mentoral" style="rhombus;whiteSpace=wrap;html=1;shadow=0;fontFamily=Helvetica;fontSize=12;align=center;strokeWidth=1;spacing=6;spacingTop=-4;" vertex="1" parent="WIyWlLk6GJQsqaUBKTNV-1">
          <mxGeometry x="600" y="545" width="100" height="80" as="geometry" />
        </mxCell>
        <mxCell id="cGArzZf6l7HYYYU6c4xr-23" style="edgeStyle=orthogonalEdgeStyle;rounded=0;orthogonalLoop=1;jettySize=auto;html=1;entryX=1;entryY=0.5;entryDx=0;entryDy=0;endArrow=ERmandOne;endFill=0;" edge="1" parent="WIyWlLk6GJQsqaUBKTNV-1" source="cGArzZf6l7HYYYU6c4xr-3" target="cGArzZf6l7HYYYU6c4xr-1">
          <mxGeometry relative="1" as="geometry" />
        </mxCell>
        <mxCell id="cGArzZf6l7HYYYU6c4xr-3" value="ugyintezes" style="rhombus;whiteSpace=wrap;html=1;shadow=0;fontFamily=Helvetica;fontSize=12;align=center;strokeWidth=1;spacing=6;spacingTop=-4;" vertex="1" parent="WIyWlLk6GJQsqaUBKTNV-1">
          <mxGeometry x="140" y="545" width="100" height="80" as="geometry" />
        </mxCell>
        <mxCell id="cGArzZf6l7HYYYU6c4xr-11" style="rounded=0;orthogonalLoop=1;jettySize=auto;html=1;exitX=0.5;exitY=1;exitDx=0;exitDy=0;entryX=0.25;entryY=0;entryDx=0;entryDy=0;endArrow=none;endFill=0;" edge="1" parent="WIyWlLk6GJQsqaUBKTNV-1" source="cGArzZf6l7HYYYU6c4xr-4" target="WIyWlLk6GJQsqaUBKTNV-7">
          <mxGeometry relative="1" as="geometry" />
        </mxCell>
        <mxCell id="cGArzZf6l7HYYYU6c4xr-4" value="nev" style="ellipse;whiteSpace=wrap;html=1;" vertex="1" parent="WIyWlLk6GJQsqaUBKTNV-1">
          <mxGeometry x="324" y="-100" width="90" height="50" as="geometry" />
        </mxCell>
        <mxCell id="cGArzZf6l7HYYYU6c4xr-12" style="rounded=0;orthogonalLoop=1;jettySize=auto;html=1;entryX=0.75;entryY=0;entryDx=0;entryDy=0;endArrow=none;endFill=0;" edge="1" parent="WIyWlLk6GJQsqaUBKTNV-1" source="cGArzZf6l7HYYYU6c4xr-5" target="WIyWlLk6GJQsqaUBKTNV-7">
          <mxGeometry relative="1" as="geometry" />
        </mxCell>
        <mxCell id="cGArzZf6l7HYYYU6c4xr-5" value="alapitasEve" style="ellipse;whiteSpace=wrap;html=1;" vertex="1" parent="WIyWlLk6GJQsqaUBKTNV-1">
          <mxGeometry x="430" y="-100" width="90" height="50" as="geometry" />
        </mxCell>
        <mxCell id="cGArzZf6l7HYYYU6c4xr-6" value="bevetel" style="ellipse;whiteSpace=wrap;html=1;" vertex="1" parent="WIyWlLk6GJQsqaUBKTNV-1">
          <mxGeometry x="540" y="-100" width="90" height="50" as="geometry" />
        </mxCell>
        <mxCell id="cGArzZf6l7HYYYU6c4xr-10" style="rounded=0;orthogonalLoop=1;jettySize=auto;html=1;exitX=0.5;exitY=1;exitDx=0;exitDy=0;entryX=0;entryY=0;entryDx=0;entryDy=0;endArrow=none;endFill=0;" edge="1" parent="WIyWlLk6GJQsqaUBKTNV-1" source="cGArzZf6l7HYYYU6c4xr-7" target="WIyWlLk6GJQsqaUBKTNV-7">
          <mxGeometry relative="1" as="geometry" />
        </mxCell>
        <mxCell id="cGArzZf6l7HYYYU6c4xr-7" value="&lt;b&gt;&lt;u&gt;gyarto_id&lt;/u&gt;&lt;/b&gt;" style="ellipse;whiteSpace=wrap;html=1;" vertex="1" parent="WIyWlLk6GJQsqaUBKTNV-1">
          <mxGeometry x="220" y="-100" width="90" height="50" as="geometry" />
        </mxCell>
        <mxCell id="cGArzZf6l7HYYYU6c4xr-13" style="rounded=0;orthogonalLoop=1;jettySize=auto;html=1;exitX=0.5;exitY=1;exitDx=0;exitDy=0;entryX=1;entryY=0;entryDx=0;entryDy=0;endArrow=none;endFill=0;" edge="1" parent="WIyWlLk6GJQsqaUBKTNV-1" source="cGArzZf6l7HYYYU6c4xr-6" target="WIyWlLk6GJQsqaUBKTNV-7">
          <mxGeometry relative="1" as="geometry" />
        </mxCell>
        <mxCell id="cGArzZf6l7HYYYU6c4xr-24" value="&lt;b&gt;&lt;u&gt;szolg_id&lt;/u&gt;&lt;/b&gt;" style="ellipse;whiteSpace=wrap;html=1;" vertex="1" parent="WIyWlLk6GJQsqaUBKTNV-1">
          <mxGeometry x="550" y="170" width="90" height="50" as="geometry" />
        </mxCell>
        <mxCell id="cGArzZf6l7HYYYU6c4xr-31" style="rounded=0;orthogonalLoop=1;jettySize=auto;html=1;entryX=1;entryY=0.25;entryDx=0;entryDy=0;endArrow=none;endFill=0;exitX=0;exitY=0.5;exitDx=0;exitDy=0;" edge="1" parent="WIyWlLk6GJQsqaUBKTNV-1" source="cGArzZf6l7HYYYU6c4xr-25" target="cGArzZf6l7HYYYU6c4xr-0">
          <mxGeometry relative="1" as="geometry" />
        </mxCell>
        <mxCell id="cGArzZf6l7HYYYU6c4xr-25" value="nev" style="ellipse;whiteSpace=wrap;html=1;" vertex="1" parent="WIyWlLk6GJQsqaUBKTNV-1">
          <mxGeometry x="550" y="240" width="90" height="50" as="geometry" />
        </mxCell>
        <mxCell id="cGArzZf6l7HYYYU6c4xr-26" value="technologia" style="ellipse;whiteSpace=wrap;html=1;" vertex="1" parent="WIyWlLk6GJQsqaUBKTNV-1">
          <mxGeometry x="550" y="380" width="90" height="50" as="geometry" />
        </mxCell>
        <mxCell id="cGArzZf6l7HYYYU6c4xr-30" style="rounded=0;orthogonalLoop=1;jettySize=auto;html=1;exitX=0;exitY=0.5;exitDx=0;exitDy=0;entryX=1;entryY=0.75;entryDx=0;entryDy=0;endArrow=none;endFill=0;" edge="1" parent="WIyWlLk6GJQsqaUBKTNV-1" source="cGArzZf6l7HYYYU6c4xr-27" target="cGArzZf6l7HYYYU6c4xr-0">
          <mxGeometry relative="1" as="geometry" />
        </mxCell>
        <mxCell id="cGArzZf6l7HYYYU6c4xr-27" value="ar" style="ellipse;whiteSpace=wrap;html=1;" vertex="1" parent="WIyWlLk6GJQsqaUBKTNV-1">
          <mxGeometry x="550" y="310" width="90" height="50" as="geometry" />
        </mxCell>
        <mxCell id="cGArzZf6l7HYYYU6c4xr-39" style="rounded=0;orthogonalLoop=1;jettySize=auto;html=1;entryX=1;entryY=0.25;entryDx=0;entryDy=0;endArrow=none;endFill=0;exitX=0;exitY=0.5;exitDx=0;exitDy=0;" edge="1" parent="WIyWlLk6GJQsqaUBKTNV-1" source="cGArzZf6l7HYYYU6c4xr-32" target="WIyWlLk6GJQsqaUBKTNV-12">
          <mxGeometry relative="1" as="geometry" />
        </mxCell>
        <mxCell id="cGArzZf6l7HYYYU6c4xr-32" value="telefonszam" style="ellipse;whiteSpace=wrap;html=1;" vertex="1" parent="WIyWlLk6GJQsqaUBKTNV-1">
          <mxGeometry x="970" y="520" width="90" height="50" as="geometry" />
        </mxCell>
        <mxCell id="cGArzZf6l7HYYYU6c4xr-38" style="rounded=0;orthogonalLoop=1;jettySize=auto;html=1;entryX=1;entryY=0.75;entryDx=0;entryDy=0;endArrow=none;endFill=0;exitX=0;exitY=0.5;exitDx=0;exitDy=0;" edge="1" parent="WIyWlLk6GJQsqaUBKTNV-1" source="cGArzZf6l7HYYYU6c4xr-33" target="WIyWlLk6GJQsqaUBKTNV-12">
          <mxGeometry relative="1" as="geometry" />
        </mxCell>
        <mxCell id="cGArzZf6l7HYYYU6c4xr-33" value="nev" style="ellipse;whiteSpace=wrap;html=1;" vertex="1" parent="WIyWlLk6GJQsqaUBKTNV-1">
          <mxGeometry x="970" y="585" width="90" height="50" as="geometry" />
        </mxCell>
        <mxCell id="cGArzZf6l7HYYYU6c4xr-36" style="rounded=0;orthogonalLoop=1;jettySize=auto;html=1;entryX=1;entryY=0;entryDx=0;entryDy=0;endArrow=none;endFill=0;exitX=0;exitY=0.5;exitDx=0;exitDy=0;" edge="1" parent="WIyWlLk6GJQsqaUBKTNV-1" source="cGArzZf6l7HYYYU6c4xr-34" target="WIyWlLk6GJQsqaUBKTNV-12">
          <mxGeometry relative="1" as="geometry" />
        </mxCell>
        <mxCell id="cGArzZf6l7HYYYU6c4xr-34" value="ledolgozottEvek" style="ellipse;whiteSpace=wrap;html=1;" vertex="1" parent="WIyWlLk6GJQsqaUBKTNV-1">
          <mxGeometry x="970" y="460" width="90" height="50" as="geometry" />
        </mxCell>
        <mxCell id="cGArzZf6l7HYYYU6c4xr-37" style="rounded=0;orthogonalLoop=1;jettySize=auto;html=1;entryX=1;entryY=1;entryDx=0;entryDy=0;endArrow=none;endFill=0;exitX=0;exitY=0.5;exitDx=0;exitDy=0;" edge="1" parent="WIyWlLk6GJQsqaUBKTNV-1" source="cGArzZf6l7HYYYU6c4xr-35" target="WIyWlLk6GJQsqaUBKTNV-12">
          <mxGeometry relative="1" as="geometry" />
        </mxCell>
        <mxCell id="cGArzZf6l7HYYYU6c4xr-35" value="&lt;u&gt;&lt;b&gt;mentor_id&lt;/b&gt;&lt;/u&gt;" style="ellipse;whiteSpace=wrap;html=1;" vertex="1" parent="WIyWlLk6GJQsqaUBKTNV-1">
          <mxGeometry x="970" y="650" width="90" height="50" as="geometry" />
        </mxCell>
        <mxCell id="cGArzZf6l7HYYYU6c4xr-46" style="rounded=0;orthogonalLoop=1;jettySize=auto;html=1;exitX=0.5;exitY=0;exitDx=0;exitDy=0;entryX=0.25;entryY=1;entryDx=0;entryDy=0;endArrow=none;endFill=0;" edge="1" parent="WIyWlLk6GJQsqaUBKTNV-1" source="cGArzZf6l7HYYYU6c4xr-41" target="WIyWlLk6GJQsqaUBKTNV-11">
          <mxGeometry relative="1" as="geometry" />
        </mxCell>
        <mxCell id="cGArzZf6l7HYYYU6c4xr-41" value="nev" style="ellipse;whiteSpace=wrap;html=1;" vertex="1" parent="WIyWlLk6GJQsqaUBKTNV-1">
          <mxGeometry x="324" y="700" width="90" height="50" as="geometry" />
        </mxCell>
        <mxCell id="cGArzZf6l7HYYYU6c4xr-47" style="rounded=0;orthogonalLoop=1;jettySize=auto;html=1;exitX=0.5;exitY=0;exitDx=0;exitDy=0;entryX=0.75;entryY=1;entryDx=0;entryDy=0;endArrow=none;endFill=0;" edge="1" parent="WIyWlLk6GJQsqaUBKTNV-1" source="cGArzZf6l7HYYYU6c4xr-42" target="WIyWlLk6GJQsqaUBKTNV-11">
          <mxGeometry relative="1" as="geometry" />
        </mxCell>
        <mxCell id="cGArzZf6l7HYYYU6c4xr-42" value="szul_ev" style="ellipse;whiteSpace=wrap;html=1;" vertex="1" parent="WIyWlLk6GJQsqaUBKTNV-1">
          <mxGeometry x="430" y="700" width="90" height="50" as="geometry" />
        </mxCell>
        <mxCell id="cGArzZf6l7HYYYU6c4xr-49" style="rounded=0;orthogonalLoop=1;jettySize=auto;html=1;exitX=0.5;exitY=0;exitDx=0;exitDy=0;entryX=1;entryY=1;entryDx=0;entryDy=0;endArrow=none;endFill=0;" edge="1" parent="WIyWlLk6GJQsqaUBKTNV-1" source="cGArzZf6l7HYYYU6c4xr-43" target="WIyWlLk6GJQsqaUBKTNV-11">
          <mxGeometry relative="1" as="geometry" />
        </mxCell>
        <mxCell id="cGArzZf6l7HYYYU6c4xr-43" value="beosztas" style="ellipse;whiteSpace=wrap;html=1;" vertex="1" parent="WIyWlLk6GJQsqaUBKTNV-1">
          <mxGeometry x="530" y="700" width="90" height="50" as="geometry" />
        </mxCell>
        <mxCell id="cGArzZf6l7HYYYU6c4xr-45" style="rounded=0;orthogonalLoop=1;jettySize=auto;html=1;exitX=0.5;exitY=0;exitDx=0;exitDy=0;entryX=0;entryY=1;entryDx=0;entryDy=0;endArrow=none;endFill=0;" edge="1" parent="WIyWlLk6GJQsqaUBKTNV-1" source="cGArzZf6l7HYYYU6c4xr-44" target="WIyWlLk6GJQsqaUBKTNV-11">
          <mxGeometry relative="1" as="geometry" />
        </mxCell>
        <mxCell id="cGArzZf6l7HYYYU6c4xr-44" value="&lt;b&gt;&lt;u&gt;dolg_id&lt;/u&gt;&lt;/b&gt;" style="ellipse;whiteSpace=wrap;html=1;" vertex="1" parent="WIyWlLk6GJQsqaUBKTNV-1">
          <mxGeometry x="220" y="700" width="90" height="50" as="geometry" />
        </mxCell>
        <mxCell id="cGArzZf6l7HYYYU6c4xr-68" style="rounded=0;orthogonalLoop=1;jettySize=auto;html=1;entryX=0;entryY=0.5;entryDx=0;entryDy=0;endArrow=none;endFill=0;exitX=1;exitY=0.5;exitDx=0;exitDy=0;" edge="1" parent="WIyWlLk6GJQsqaUBKTNV-1" source="cGArzZf6l7HYYYU6c4xr-50" target="cGArzZf6l7HYYYU6c4xr-1">
          <mxGeometry relative="1" as="geometry" />
        </mxCell>
        <mxCell id="cGArzZf6l7HYYYU6c4xr-50" value="eletkor" style="ellipse;whiteSpace=wrap;html=1;dashed=1;" vertex="1" parent="WIyWlLk6GJQsqaUBKTNV-1">
          <mxGeometry x="-220" y="520" width="90" height="50" as="geometry" />
        </mxCell>
        <mxCell id="cGArzZf6l7HYYYU6c4xr-69" style="rounded=0;orthogonalLoop=1;jettySize=auto;html=1;entryX=0;entryY=0.5;entryDx=0;entryDy=0;exitX=1;exitY=0.5;exitDx=0;exitDy=0;endArrow=none;endFill=0;" edge="1" parent="WIyWlLk6GJQsqaUBKTNV-1" source="cGArzZf6l7HYYYU6c4xr-51" target="cGArzZf6l7HYYYU6c4xr-1">
          <mxGeometry relative="1" as="geometry" />
        </mxCell>
        <mxCell id="cGArzZf6l7HYYYU6c4xr-51" value="lakcim" style="ellipse;whiteSpace=wrap;html=1;" vertex="1" parent="WIyWlLk6GJQsqaUBKTNV-1">
          <mxGeometry x="-220" y="600" width="90" height="50" as="geometry" />
        </mxCell>
        <mxCell id="cGArzZf6l7HYYYU6c4xr-66" style="rounded=0;orthogonalLoop=1;jettySize=auto;html=1;exitX=1;exitY=0.5;exitDx=0;exitDy=0;entryX=0;entryY=0.75;entryDx=0;entryDy=0;endArrow=none;endFill=0;" edge="1" parent="WIyWlLk6GJQsqaUBKTNV-1" source="cGArzZf6l7HYYYU6c4xr-52" target="cGArzZf6l7HYYYU6c4xr-1">
          <mxGeometry relative="1" as="geometry" />
        </mxCell>
        <mxCell id="cGArzZf6l7HYYYU6c4xr-52" value="nev" style="ellipse;whiteSpace=wrap;html=1;" vertex="1" parent="WIyWlLk6GJQsqaUBKTNV-1">
          <mxGeometry x="-220" y="670" width="90" height="50" as="geometry" />
        </mxCell>
        <mxCell id="cGArzZf6l7HYYYU6c4xr-65" style="rounded=0;orthogonalLoop=1;jettySize=auto;html=1;entryX=0;entryY=1;entryDx=0;entryDy=0;endArrow=none;endFill=0;exitX=1;exitY=0.5;exitDx=0;exitDy=0;" edge="1" parent="WIyWlLk6GJQsqaUBKTNV-1" source="cGArzZf6l7HYYYU6c4xr-53" target="cGArzZf6l7HYYYU6c4xr-1">
          <mxGeometry relative="1" as="geometry" />
        </mxCell>
        <mxCell id="cGArzZf6l7HYYYU6c4xr-53" value="&lt;b&gt;&lt;u&gt;ugyfel_id&lt;/u&gt;&lt;/b&gt;" style="ellipse;whiteSpace=wrap;html=1;" vertex="1" parent="WIyWlLk6GJQsqaUBKTNV-1">
          <mxGeometry x="-220" y="740" width="90" height="50" as="geometry" />
        </mxCell>
        <mxCell id="cGArzZf6l7HYYYU6c4xr-67" style="rounded=0;orthogonalLoop=1;jettySize=auto;html=1;exitX=1;exitY=0.5;exitDx=0;exitDy=0;entryX=0;entryY=0.25;entryDx=0;entryDy=0;endArrow=none;endFill=0;" edge="1" parent="WIyWlLk6GJQsqaUBKTNV-1" source="cGArzZf6l7HYYYU6c4xr-54" target="cGArzZf6l7HYYYU6c4xr-1">
          <mxGeometry relative="1" as="geometry" />
        </mxCell>
        <mxCell id="cGArzZf6l7HYYYU6c4xr-54" value="szul_ev" style="ellipse;whiteSpace=wrap;html=1;" vertex="1" parent="WIyWlLk6GJQsqaUBKTNV-1">
          <mxGeometry x="-220" y="455" width="90" height="50" as="geometry" />
        </mxCell>
        <mxCell id="cGArzZf6l7HYYYU6c4xr-64" style="rounded=0;orthogonalLoop=1;jettySize=auto;html=1;entryX=0;entryY=0;entryDx=0;entryDy=0;endArrow=none;endFill=0;exitX=1;exitY=0.5;exitDx=0;exitDy=0;" edge="1" parent="WIyWlLk6GJQsqaUBKTNV-1" source="cGArzZf6l7HYYYU6c4xr-70" target="cGArzZf6l7HYYYU6c4xr-1">
          <mxGeometry relative="1" as="geometry">
            <mxPoint x="-100" y="395" as="sourcePoint" />
          </mxGeometry>
        </mxCell>
        <mxCell id="cGArzZf6l7HYYYU6c4xr-61" style="rounded=0;orthogonalLoop=1;jettySize=auto;html=1;entryX=0;entryY=0.5;entryDx=0;entryDy=0;endArrow=none;endFill=0;" edge="1" parent="WIyWlLk6GJQsqaUBKTNV-1">
          <mxGeometry relative="1" as="geometry">
            <mxPoint x="-220" y="630" as="targetPoint" />
            <mxPoint x="-280" y="590" as="sourcePoint" />
          </mxGeometry>
        </mxCell>
        <mxCell id="cGArzZf6l7HYYYU6c4xr-56" value="kozseg" style="ellipse;whiteSpace=wrap;html=1;" vertex="1" parent="WIyWlLk6GJQsqaUBKTNV-1">
          <mxGeometry x="-370" y="565" width="90" height="50" as="geometry" />
        </mxCell>
        <mxCell id="cGArzZf6l7HYYYU6c4xr-60" style="rounded=0;orthogonalLoop=1;jettySize=auto;html=1;entryX=0;entryY=0.5;entryDx=0;entryDy=0;endArrow=none;endFill=0;" edge="1" parent="WIyWlLk6GJQsqaUBKTNV-1">
          <mxGeometry relative="1" as="geometry">
            <mxPoint x="-280" y="650" as="sourcePoint" />
            <mxPoint x="-220" y="630" as="targetPoint" />
          </mxGeometry>
        </mxCell>
        <mxCell id="cGArzZf6l7HYYYU6c4xr-57" value="kozterulet" style="ellipse;whiteSpace=wrap;html=1;" vertex="1" parent="WIyWlLk6GJQsqaUBKTNV-1">
          <mxGeometry x="-370" y="625" width="90" height="50" as="geometry" />
        </mxCell>
        <mxCell id="cGArzZf6l7HYYYU6c4xr-62" style="rounded=0;orthogonalLoop=1;jettySize=auto;html=1;entryX=0;entryY=0.5;entryDx=0;entryDy=0;endArrow=none;endFill=0;exitX=1;exitY=0.5;exitDx=0;exitDy=0;" edge="1" parent="WIyWlLk6GJQsqaUBKTNV-1" source="cGArzZf6l7HYYYU6c4xr-58">
          <mxGeometry relative="1" as="geometry">
            <mxPoint x="-220" y="630" as="targetPoint" />
          </mxGeometry>
        </mxCell>
        <mxCell id="cGArzZf6l7HYYYU6c4xr-58" value="irsz." style="ellipse;whiteSpace=wrap;html=1;" vertex="1" parent="WIyWlLk6GJQsqaUBKTNV-1">
          <mxGeometry x="-370" y="510" width="90" height="50" as="geometry" />
        </mxCell>
        <mxCell id="cGArzZf6l7HYYYU6c4xr-63" style="rounded=0;orthogonalLoop=1;jettySize=auto;html=1;entryX=0;entryY=0.5;entryDx=0;entryDy=0;endArrow=none;endFill=0;exitX=1;exitY=0.5;exitDx=0;exitDy=0;" edge="1" parent="WIyWlLk6GJQsqaUBKTNV-1" source="cGArzZf6l7HYYYU6c4xr-59">
          <mxGeometry relative="1" as="geometry">
            <mxPoint x="-220" y="630" as="targetPoint" />
          </mxGeometry>
        </mxCell>
        <mxCell id="cGArzZf6l7HYYYU6c4xr-59" value="hazszam" style="ellipse;whiteSpace=wrap;html=1;" vertex="1" parent="WIyWlLk6GJQsqaUBKTNV-1">
          <mxGeometry x="-370" y="680" width="90" height="50" as="geometry" />
        </mxCell>
        <mxCell id="cGArzZf6l7HYYYU6c4xr-71" value="" style="group" vertex="1" connectable="0" parent="WIyWlLk6GJQsqaUBKTNV-1">
          <mxGeometry x="-225" y="375" width="100" height="60" as="geometry" />
        </mxCell>
        <mxCell id="cGArzZf6l7HYYYU6c4xr-70" value="" style="ellipse;whiteSpace=wrap;html=1;perimeterSpacing=0;strokeColor=default;" vertex="1" parent="cGArzZf6l7HYYYU6c4xr-71">
          <mxGeometry width="100" height="60" as="geometry" />
        </mxCell>
        <mxCell id="cGArzZf6l7HYYYU6c4xr-55" value="szolgaltatasok" style="ellipse;whiteSpace=wrap;html=1;perimeterSpacing=0;strokeColor=default;" vertex="1" parent="cGArzZf6l7HYYYU6c4xr-71">
          <mxGeometry x="5" y="5" width="90" height="50" as="geometry" />
        </mxCell>
        <mxCell id="cGArzZf6l7HYYYU6c4xr-73" style="rounded=0;orthogonalLoop=1;jettySize=auto;html=1;entryX=0;entryY=0.5;entryDx=0;entryDy=0;endArrow=none;endFill=0;exitX=1;exitY=0.5;exitDx=0;exitDy=0;" edge="1" parent="WIyWlLk6GJQsqaUBKTNV-1" source="cGArzZf6l7HYYYU6c4xr-72" target="WIyWlLk6GJQsqaUBKTNV-10">
          <mxGeometry relative="1" as="geometry" />
        </mxCell>
        <mxCell id="cGArzZf6l7HYYYU6c4xr-72" value="megrendeles" style="ellipse;whiteSpace=wrap;html=1;" vertex="1" parent="WIyWlLk6GJQsqaUBKTNV-1">
          <mxGeometry x="260" y="390" width="90" height="50" as="geometry" />
        </mxCell>
        <mxCell id="cGArzZf6l7HYYYU6c4xr-77" style="rounded=0;orthogonalLoop=1;jettySize=auto;html=1;exitX=0.5;exitY=1;exitDx=0;exitDy=0;entryX=0.5;entryY=0;entryDx=0;entryDy=0;endArrow=none;endFill=0;" edge="1" parent="WIyWlLk6GJQsqaUBKTNV-1" source="cGArzZf6l7HYYYU6c4xr-74" target="cGArzZf6l7HYYYU6c4xr-3">
          <mxGeometry relative="1" as="geometry" />
        </mxCell>
        <mxCell id="cGArzZf6l7HYYYU6c4xr-74" value="tipus" style="ellipse;whiteSpace=wrap;html=1;" vertex="1" parent="WIyWlLk6GJQsqaUBKTNV-1">
          <mxGeometry x="100" y="490" width="90" height="50" as="geometry" />
        </mxCell>
        <mxCell id="cGArzZf6l7HYYYU6c4xr-76" style="rounded=0;orthogonalLoop=1;jettySize=auto;html=1;exitX=1;exitY=0.5;exitDx=0;exitDy=0;entryX=0;entryY=0.5;entryDx=0;entryDy=0;endArrow=none;endFill=0;" edge="1" parent="WIyWlLk6GJQsqaUBKTNV-1" source="cGArzZf6l7HYYYU6c4xr-75" target="WIyWlLk6GJQsqaUBKTNV-10">
          <mxGeometry relative="1" as="geometry" />
        </mxCell>
        <mxCell id="cGArzZf6l7HYYYU6c4xr-75" value="idopont" style="ellipse;whiteSpace=wrap;html=1;" vertex="1" parent="WIyWlLk6GJQsqaUBKTNV-1">
          <mxGeometry x="260" y="440" width="90" height="50" as="geometry" />
        </mxCell>
        <mxCell id="cGArzZf6l7HYYYU6c4xr-79" value="" style="rounded=0;orthogonalLoop=1;jettySize=auto;html=1;endArrow=none;endFill=0;entryX=0.5;entryY=0;entryDx=0;entryDy=0;exitX=0.5;exitY=1;exitDx=0;exitDy=0;" edge="1" parent="WIyWlLk6GJQsqaUBKTNV-1" source="cGArzZf6l7HYYYU6c4xr-78" target="cGArzZf6l7HYYYU6c4xr-3">
          <mxGeometry relative="1" as="geometry" />
        </mxCell>
        <mxCell id="cGArzZf6l7HYYYU6c4xr-78" value="idotartam" style="ellipse;whiteSpace=wrap;html=1;" vertex="1" parent="WIyWlLk6GJQsqaUBKTNV-1">
          <mxGeometry x="190" y="490" width="90" height="50" as="geometry" />
        </mxCell>
      </root>
    </mxGraphModel>
  </diagram>
</mxfile>
